<?xml version="1.0" encoding="UTF-8"?>
<!-- Generator: Adobe Illustrator 19.2.1, SVG Export Plug-In . SVG Version: 6.00 Build 0)  -->
<svg version="1.1" id="Livello_1" xmlns="http://www.w3.org/2000/svg" xmlns:xlink="http://www.w3.org/1999/xlink" x="0px" y="0px" viewBox="0 0 500 124.5" style="enable-background:new 0 0 500 124.5;" xml:space="preserve">
<style type="text/css">
	.st0{fill:#FFFFFF;}
	.st1{fill-rule:evenodd;clip-rule:evenodd;fill:#FFFFFF;}
	.st2{fill:#EE525E;}
	.st3{fill-rule:evenodd;clip-rule:evenodd;fill:#EE525E;}
</style>
<g>
	<g>
		<path class="st2" d="M333.6,102.7c-0.6-2.6-1.6-3.6-3.6-3.6c-1.5,0-2.6,0.6-3.2,1.7c-0.6,1.2-1,2.9-1,4.8c0,3.8,1.5,6.1,4.1,6.1    c2,0,3-1,3.7-3.5h4.9c-0.5,4.7-3.8,7.6-8.5,7.6c-5.8,0-9.2-3.8-9.2-10.2c0-6.7,3.4-10.5,9.2-10.5c4.9,0,8.1,2.9,8.5,7.7H333.6z"/>
		<path class="st2" d="M360.2,105.6c0,6.3-3.7,10.2-9.7,10.2c-6,0-9.7-3.9-9.7-10.4c0-6.4,3.7-10.4,9.6-10.4    C356.6,95,360.2,98.9,360.2,105.6z M345.9,105.4c0,3.8,1.9,6.3,4.6,6.3c2.7,0,4.6-2.5,4.6-6.2c0-3.8-1.8-6.3-4.6-6.3    C347.7,99.1,345.9,101.6,345.9,105.4z"/>
		<path class="st2" d="M368.9,95.4v2.8c1.5-2.2,3.2-3.2,5.9-3.2c4.2,0,6.6,2.4,6.6,6.8v13.1h-5.1v-12.1c0-2.3-1.1-3.5-3.3-3.5    c-2.5,0-4.1,1.5-4.1,3.8v11.8h-5.1V95.4H368.9z"/>
		<path class="st2" d="M396.9,101.7c0-1.8-1.2-2.6-3.7-2.6c-1.8,0-2.9,0.7-2.9,1.8c0,0.8,0.4,1.1,1.8,1.5l6.4,1.8    c2.6,0.8,3.8,2.4,3.8,4.9c0,1.9-0.9,3.7-2.3,4.9c-1.5,1.2-3.5,1.7-6.2,1.7c-5.9,0-9.1-2.2-9.2-6.5h5c0.2,1.1,0.4,1.5,1,1.9    c0.7,0.5,1.7,0.7,3,0.7c2.4,0,3.8-0.7,3.8-1.9c0-0.8-0.4-1.2-1.7-1.6l-6.1-1.9c-1.9-0.6-2.5-0.9-3.2-1.6c-0.7-0.8-1.1-1.9-1.1-3.2    c0-4,3.1-6.5,8.1-6.5c5.3,0,8.5,2.5,8.5,6.6H396.9z"/>
		<path class="st2" d="M418,114.9v-2.3c-1.5,2.2-3.2,3.2-5.9,3.2c-4.2,0-6.6-2.4-6.6-6.8V95.4h5.1v12.6c0,2.4,1.1,3.5,3.3,3.5    c2.5,0,4.1-1.5,4.1-3.8V95.4h5.1v19.6H418z"/>
		<path class="st2" d="M433,114.9h-5.1V88.5h5.1V114.9z"/>
		<path class="st2" d="M446.3,99.1h-2.8v10.7c0,1.7,0.3,2.1,1.7,2.1c0.4,0,0.7,0,1.2-0.1v3.6c-0.9,0.3-1.8,0.4-2.9,0.4    c-3.3,0-5-1.5-5-4.6v-12h-2.5v-3.4h2.5v-5.3h5.1v5.3h2.8V99.1z"/>
		<path class="st2" d="M454.7,93h-5.1v-4.5h5.1V93z M454.7,114.9h-5.1V95.4h5.1V114.9z"/>
		<path class="st2" d="M464.4,95.4v2.8c1.5-2.2,3.2-3.2,5.9-3.2c4.2,0,6.6,2.4,6.6,6.8v13.1h-5.1v-12.1c0-2.3-1.1-3.5-3.3-3.5    c-2.5,0-4.1,1.5-4.1,3.8v11.8h-5.1V95.4H464.4z"/>
		<path class="st2" d="M498.3,95.4v20.2c0,4.5-3.4,7.3-9.1,7.3c-2.8,0-4.9-0.6-6.5-1.9c-1.3-1.1-1.9-2.1-1.9-3.7h5.2    c0.4,1.5,1.5,2.3,3.3,2.3c2.4,0,4.1-1.6,4.1-4V113c-1.8,2.1-3,2.8-5.2,2.8c-4.7,0-7.9-4.1-7.9-10.2c0-3.4,1-6.3,3-8.3    c1.3-1.4,3.3-2.3,5-2.3c2.1,0,3.6,1.1,5,3.3v-3H498.3z M485.6,105.6c0,3.6,1.6,6,3.8,6c2.5,0,4.2-2.4,4.2-6c0-3.6-1.8-6.3-4.2-6.3    C487.1,99.3,485.6,101.9,485.6,105.6z"/>
	</g>
	<g>
		<g>
			<circle class="st2" cx="8.2" cy="104.3" r="5.5"/>
		</g>
		<g>
			<circle class="st2" cx="47.3" cy="104.3" r="6.8"/>
		</g>
		<g>
			<circle class="st2" cx="88.5" cy="104.3" r="8.3"/>
		</g>
		<g>
			<circle class="st2" cx="132.5" cy="104.3" r="9.5"/>
		</g>
		<g>
			<circle class="st2" cx="178.8" cy="104.3" r="10.9"/>
		</g>
		<g>
			<circle class="st2" cx="228" cy="104.3" r="12.3"/>
		</g>
		<g>
			<circle class="st2" cx="280.1" cy="104.3" r="13.6"/>
		</g>
	</g>
	<g>
		<g>
			<g>
				<path class="st3" d="M226.2,46.9c-0.2-6.9-8.5-5.5-8.5-1.4c-1.4,9-5.7,13.2-14.9,11.9c-6.8-1-7.9-4.2-8.7-13.3      c-1-10.7-11.8-16.6-20.6-14.8c-6.4,1.3-9.3,3.4-11.5,16.6c0,0.3-0.5,3.8-2.7,4c-1.2,0.1-2.2-1.4-2.5-2.5      c-1.4-5-2.1-9.8-4.3-14.1c-0.2-0.5-0.5-0.9-0.8-1.4c-1.6-2.4-4.5-1.9-5.7,0.7l-0.5,0.9c-1.9,3.9-3.1,7.8-4.6,11.9      c-1.4,3.5-6.3,10.3-10,5.8c-3.8-4.6-3.8-11.2-3.8-17.5c0-12.6,0.4-14.3-0.6-26.8c0-0.6-0.5-2.4-0.8-2.9      c-1.5-2.6-4.6-2.8-6.3-0.4c-0.7,1.1-0.8,8-0.9,8.9c-0.1,1.2-0.3,2.6-0.4,4.9c-0.3,5.3-1.7,10.1-7.6,12.9      c-3.8,1.8-9.9,6.6-11.4,10.9C95.1,53.1,91.4,53.7,80.8,55c-1.6,0.2-5.6,0.3-8.1-1c-3.2-1.7-4.2-4.9-1.6-7.3      c2.9-2.7,8.8-3.2,11.8-5.2c4.3-2.8,5.3-11.1-0.6-15.1c-5.4-3.6-12-2.1-15.7,1.6c-4.2,4.2-6.9,9.2-9.2,15.2      c-0.5,1.4-2.4,1.5-2.7-0.1c-0.5-2.6-0.8-6.7-1.7-10.2c-0.6-2.3-3.4-3.3-5.2-1.7c-2.4,2.1-3.8,4.6-5.9,6.4c-1.1,1-2.9,0.4-3.2-1      c-3.5-14.5-9.7-4.1-11.8-1.5c-1.1,1.4-2.7,0.6-3.3-0.4c-1.4-2.7-1.4-7.5-4.2-7.8c-4.5-0.6-6.4,2.2-7.7,5.1      c-2.7,5.9-3.9,9.8-6,17.4C4.4,53.8,3,58.2,2.5,62.8c-0.2,1.5,0.7,2.9,2.1,3.3c0.1,0,0.3,0.1,0.4,0.1c1,0.1,1.8-0.6,2.3-1.8      c2.3-6.7,1.9-4.7,5.6-15.7c0.8-2.4,4.3-2.1,4.6,0.4c0.6,4.6,0.3,8.1,1,15.7c0.1,0.8,0.8,1.5,1.7,1.6c0,0,0,0,0,0      c0.7,0.1,1.4-0.2,1.8-0.8c1.5-2.2,4.1-9.9,5.8-12.7c0.7-1.1,2.7-0.9,3,0.3c0.6,2.1-0.1,8.4,0.6,12c0.2,1.3,2,1.6,2.7,0.6      c2.6-3.6,4.9-8.8,7.5-12.5c1.6-2.2,5.2-1.5,5.7,1.2c0.8,4.6,4,6.3,11.1,2c0.8-0.5,1.9-0.3,2.6,0.3c8,7.9,18,9.3,28.7,5      c2.2-0.9,7.5-2,10,0.3c5.4,5,10.7,5.8,18.1,1.7c2.3-1.3,6-1.1,8.1,0.5c3.7,2.7,6.2,2.8,11,0.5c3.2-1.6,6.5-6.5,10-12.9      c0.5-0.8,1.6-0.8,2.1,0c2.8,4.6,4.7,19.7,16.7,12.7c3.2-1.9,6.7-4.8,11.1-4.8c17.4,0,19.5,10.1,35.7,5.2c8-2.4,13.8-9.6,13.6-18      C226.2,47.1,226.2,47,226.2,46.9z M69,36.9c0-0.7,0.2-2.1,1.7-4.2c1.6-2.1,2.5-2.4,4.3-2.8c2.2-0.4,4.9,1.2,4.6,2.9      c-0.3,1.4-3.1,3.7-5.1,5.1c-1,0.7-2.7,1.2-3.7,1C69.9,38.9,69.1,38.2,69,36.9z M117.6,51.4c-1,1.3-1.5,1.4-2.7,1.9      c-1.5,0.7-4.9-0.1-5.6-1.7c-1.1-2.5-1-3.7-0.6-6.3c0.2-1,0.8-3.6,2-5c1.7-1.9,4.6-1.1,6.1-0.1C119.1,41.9,119,49.6,117.6,51.4z       M185.7,47c-0.9,2.9-5.8,3.7-7.9,3.5c-1.5-0.1-3-0.9-3.7-2.1c-1.1-1.9-1.6-3.6-1.3-5.5c0.1-0.7,0.2-2.8,1.3-3.8      c1.5-1.4,4.7-0.8,6.3-0.4C183.6,39.4,186.7,43.6,185.7,47z"/>
			</g>
		</g>
		<g>
			<path class="st3" d="M152,5.6c2.5-1.4,5.4-0.6,6.5,2.1c0.3,0.9,0.2,1.6,0.1,2c-0.3,1-1.1,2.3-1.5,2.9c-2.4,3-2.5,3.2-3.7,4.4     c-0.2,0.2-1.1,1-1.3,1.1c-2.7,2.4-7,0.2-7-3.4c0-0.6,0.4-1.2,0.6-1.6c2.4-3.5,2.5-3.6,4.4-5.8C150.4,6.8,151.4,5.9,152,5.6z"/>
		</g>
	</g>
	<g>
		<g>
			<g>
				<path class="st2" d="M239.8,56.4c-1.6-4.2-3.2-8.5-4.8-13.1c-1.6-4.6-3.2-9-4.7-13.4c-1.5-4.3-2.7-8-3.6-11h-0.3v11.7      c0,2.6-2.1,4.7-4.7,4.7l0,0c-2.6,0-4.7-2.1-4.7-4.7V13.4c0-4.6,3.7-8.4,8.4-8.4l0,0c3.5,0,6.7,2.2,7.9,5.6      c2.1,5.9,4.1,11.4,5.9,16.5c1,2.9,2,5.7,3,8.6c1,2.8,2,5.5,2.9,8c0.9,2.5,1.6,4.6,2.3,6.5c0.6,1.8,1.1,3.2,1.4,4      c0.2-0.8,0.7-2.2,1.3-4c0.6-1.8,1.4-4,2.2-6.5c0.8-2.5,1.7-5.1,2.7-8c1-2.8,2-5.7,3-8.6c1.8-5.1,3.7-10.6,5.8-16.5      c1.2-3.3,4.3-5.6,7.8-5.6l0,0c4.6,0,8.3,3.7,8.3,8.3v48.5c0,2.6-2.1,4.8-4.8,4.8l0,0c-2.6,0-4.8-2.1-4.8-4.8V19H270      c-0.6,2-1.5,4.4-2.4,7.1s-2,5.7-3.1,8.7c-1.1,3.1-2.2,6.2-3.3,9.4c-1.1,3.2-2.2,6.2-3.3,9.1c-1,2.9-2,5.5-2.8,7.8      c-0.1,0.4-0.3,0.7-0.4,1.1c-1,2.7-3.5,4.5-6.4,4.5l0,0c-2.8,0-5.4-1.8-6.4-4.4C241.3,60.5,240.6,58.6,239.8,56.4z"/>
			</g>
			<g>
				<path class="st2" d="M351.6,5.1c2.4,0,4.7,1.2,5.9,3.3c3.5,5.5,6.8,10.6,9.9,15.5c1.6,2.5,3.2,5.1,4.8,7.6      c1.6,2.6,3.2,5.1,4.7,7.4c1.5,2.4,2.9,4.6,4.1,6.6c1.2,2,2.3,3.6,3.1,4.8h0.3V10c0-2.7,2.2-4.9,4.9-4.9h0c2.7,0,4.9,2.2,4.9,4.9      v49.6c0,3.9-3.1,7-7,7l0,0c-2.4,0-4.7-1.2-5.9-3.3c-3.4-5.4-6.6-10.5-9.7-15.3c-1.6-2.5-3.2-5-4.8-7.6c-1.6-2.6-3.2-5.1-4.7-7.5      c-1.5-2.4-2.9-4.6-4.1-6.6c-1.3-2-2.3-3.7-3.2-5.1h-0.3v40.4c0,2.7-2.2,4.9-4.9,4.9l0,0c-2.7,0-4.9-2.2-4.9-4.9V12.1      C344.5,8.2,347.7,5.1,351.6,5.1L351.6,5.1z"/>
			</g>
			<g>
				<path class="st2" d="M449.5,9.3L449.5,9.3c0,2.4-1.9,4.3-4.3,4.3h-9.2c-2.5,0-4.6,2.1-4.6,4.6v43.2c0,2.9-2.3,5.2-5.2,5.2h0      c-2.9,0-5.2-2.3-5.2-5.2V18.2c0-2.5-2.1-4.6-4.6-4.6h-9.2c-2.4,0-4.3-1.9-4.3-4.3v0c0-2.4,1.9-4.3,4.3-4.3h37.9      C447.6,5.1,449.5,7,449.5,9.3z"/>
			</g>
		</g>
	</g>
	<g>
		<path class="st2" d="M328.6,13.6H298c-2.4,0-4.4-2-4.4-4.4v0c0-2.4,2-4.4,4.4-4.4h30.5c2.4,0,4.4,2,4.4,4.4v0    C332.9,11.6,331,13.6,328.6,13.6z"/>
	</g>
	<g>
		<path class="st2" d="M328.6,66.7H298c-2.4,0-4.4-2-4.4-4.4v0c0-2.4,2-4.4,4.4-4.4h30.5c2.4,0,4.4,2,4.4,4.4v0    C332.9,64.8,331,66.7,328.6,66.7z"/>
	</g>
	<g>
		<path class="st2" d="M315.1,39.4h-17c-2.4,0-4.4-2-4.4-4.4v0c0-2.4,2-4.4,4.4-4.4h17c2.4,0,4.4,2,4.4,4.4v0    C319.5,37.4,317.5,39.4,315.1,39.4z"/>
	</g>
	<g>
		<path class="st2" d="M493.9,13.6h-30.5c-2.4,0-4.4-2-4.4-4.4v0c0-2.4,2-4.4,4.4-4.4h30.5c2.4,0,4.4,2,4.4,4.4v0    C498.3,11.6,496.3,13.6,493.9,13.6z"/>
	</g>
	<g>
		<path class="st2" d="M493.9,66.7h-30.5c-2.4,0-4.4-2-4.4-4.4v0c0-2.4,2-4.4,4.4-4.4h30.5c2.4,0,4.4,2,4.4,4.4v0    C498.3,64.8,496.3,66.7,493.9,66.7z"/>
	</g>
	<g>
		<path class="st2" d="M480.4,39.4h-17c-2.4,0-4.4-2-4.4-4.4v0c0-2.4,2-4.4,4.4-4.4h17c2.4,0,4.4,2,4.4,4.4v0    C484.8,37.4,482.8,39.4,480.4,39.4z"/>
	</g>
</g>
</svg>