<?xml version="1.0" encoding="UTF-8" standalone="no"?>
<svg
   xmlns:dc="http://purl.org/dc/elements/1.1/"
   xmlns:cc="http://creativecommons.org/ns#"
   xmlns:rdf="http://www.w3.org/1999/02/22-rdf-syntax-ns#"
   xmlns:svg="http://www.w3.org/2000/svg"
   xmlns="http://www.w3.org/2000/svg"
   xmlns:sodipodi="http://sodipodi.sourceforge.net/DTD/sodipodi-0.dtd"
   xmlns:inkscape="http://www.inkscape.org/namespaces/inkscape"
   version="1.1"
   id="Livello_1"
   x="0px"
   y="0px"
   viewBox="0 0 488.21124 56.764977"
   xml:space="preserve"
   sodipodi:docname="rapportinator.svg"
   width="488.21124"
   height="56.764977"
   inkscape:version="1.0.1 (3bc2e813f5, 2020-09-07)"><metadata
   id="metadata238"><rdf:RDF><cc:Work
       rdf:about=""><dc:format>image/svg+xml</dc:format><dc:type
         rdf:resource="http://purl.org/dc/dcmitype/StillImage" /><dc:title /></cc:Work></rdf:RDF></metadata><defs
   id="defs236" /><sodipodi:namedview
   pagecolor="#ffffff"
   bordercolor="#666666"
   borderopacity="1"
   objecttolerance="10"
   gridtolerance="10"
   guidetolerance="10"
   inkscape:pageopacity="0"
   inkscape:pageshadow="2"
   inkscape:window-width="1920"
   inkscape:window-height="1017"
   id="namedview234"
   showgrid="false"
   showguides="true"
   inkscape:guide-bbox="true"
   fit-margin-top="0"
   fit-margin-left="0"
   fit-margin-right="0"
   fit-margin-bottom="0"
   inkscape:zoom="2.414"
   inkscape:cx="236.43471"
   inkscape:cy="1.1149749"
   inkscape:window-x="-8"
   inkscape:window-y="-8"
   inkscape:window-maximized="1"
   inkscape:current-layer="g231"
   inkscape:document-rotation="0" />
<style
   type="text/css"
   id="style125">
	.st0{fill:#FFFFFF;}
	.st1{fill-rule:evenodd;clip-rule:evenodd;fill:#FFFFFF;}
	.st2{fill:#EE525E;}
	.st3{fill-rule:evenodd;clip-rule:evenodd;fill:#EE525E;}
</style>
<g
   id="g231"
   transform="translate(-2.6999998,-61.135025)">
	
	<g
   id="g177">
		<g
   id="g151">
			<circle
   class="st2"
   cx="8.1999998"
   cy="104.3"
   r="5.5"
   id="circle149" />
		</g>
		<g
   id="g155">
			<circle
   class="st2"
   cx="47.299999"
   cy="104.3"
   r="6.8000002"
   id="circle153" />
		</g>
		<g
   id="g159"
   style="fill:#ee525e;fill-opacity:1">
			<circle
   class="st2"
   cx="88.5"
   cy="104.3"
   r="8.3000002"
   id="circle157"
   style="fill:#ee525e;fill-opacity:1" />
		</g>
		<g
   id="g163">
			<circle
   class="st2"
   cx="132.5"
   cy="104.3"
   r="9.5"
   id="circle161" />
		</g>
		<g
   id="g167">
			<circle
   class="st2"
   cx="178.8"
   cy="104.3"
   r="10.9"
   id="circle165" />
		</g>
		<g
   id="g171">
			<circle
   class="st2"
   cx="228"
   cy="104.3"
   r="12.3"
   id="circle169" />
		</g>
		<g
   id="g175">
			<circle
   class="st2"
   cx="280.10001"
   cy="104.3"
   r="13.6"
   id="circle173" />
		</g>
	</g>
	
	
	
	
	
	
	
	<g
   id="g229"
   transform="translate(-0.82850036,25.683513)">
		
	<g
   aria-label="Rapportinator"
   transform="scale(0.98694938,1.0132232)"
   id="text242"
   style="font-size:35.7024px;line-height:1.25;font-family:'Terminator Real NFI';-inkscape-font-specification:'Terminator Real NFI';fill:#ee525e;fill-opacity:1;stroke-width:0.892559"><path
     d="M 4.6210464,35.381574 H 34.789575 q 2.499168,0 3.820156,0.428429 1.356692,0.428429 1.963632,1.392394 0.642644,0.963964 0.749751,2.570572 0.107107,1.606608 0.107107,3.962967 0,1.142477 -0.107107,1.820822 -0.107107,0.642643 -0.285619,1.106775 -0.178512,0.428428 -0.464132,0.785452 -0.285619,0.357024 -0.642643,0.89256 0.285619,0.428429 0.571239,0.785453 0.321321,0.321322 0.571238,0.749751 0.285619,0.392726 0.428429,0.89256 0.178512,0.464131 0.178512,1.142476 l 1.249584,9.853863 H 35.967754 L 34.789575,51.911785 H 11.51161 v 9.853863 H 4.585344 Z m 6.8905636,9.889565 h 21.707059 q 0.928262,0 1.249584,-0.963965 0.321322,-0.963965 0.321322,-2.177846 H 11.51161 Z"
     style="fill:#ee525e;fill-opacity:1;stroke-width:0.892559"
     id="path36" /><path
     d="m 80.631423,41.236768 v 20.52888 H 73.955075 V 54.982192 H 61.066508 l -6.747754,6.783456 H 43.857951 L 68.52831,37.488016 q 2.53487,-2.499168 5.426765,-2.499168 1.285286,0 2.463465,0.321321 1.213882,0.321322 2.142144,1.03537 0.963965,0.714048 1.499501,1.92793 0.571238,1.178179 0.571238,2.891894 z m -6.676348,0.821155 -7.211885,7.247587 h 7.211885 z"
     style="fill:#ee525e;fill-opacity:1;stroke-width:0.892559"
     id="path38" /><path
     d="m 115.47695,35.310169 q 2.60628,0 4.03437,0.606941 1.4281,0.606941 2.07074,1.713715 0.67835,1.106775 0.78545,2.641978 0.10711,1.535203 0.10711,3.356026 0,1.749417 -0.10711,3.28462 -0.1071,1.499501 -0.78545,2.641978 -0.64264,1.142477 -2.07074,1.820822 -1.42809,0.642644 -4.03437,0.642644 H 90.985105 v 9.746755 H 83.916029 V 35.310169 Z m -24.491845,6.819159 v 3.356025 h 22.635325 q 0.67834,0 1.07107,-0.285619 0.39272,-0.285619 0.53553,-0.74975 0.17852,-0.499834 0.21422,-1.106775 0.0357,-0.60694 0.0357,-1.213881 z"
     style="fill:#ee525e;fill-opacity:1;stroke-width:0.892559"
     id="path40" /><path
     d="m 157.14165,35.310169 q 2.60628,0 4.03438,0.606941 1.42809,0.606941 2.07073,1.713715 0.67835,1.106775 0.78546,2.641978 0.1071,1.535203 0.1071,3.356026 0,1.749417 -0.1071,3.28462 -0.10711,1.499501 -0.78546,2.641978 -0.64264,1.142477 -2.07073,1.820822 -1.4281,0.642644 -4.03438,0.642644 h -24.49184 v 9.746755 h -7.06908 V 35.310169 Z m -24.49184,6.819159 v 3.356025 h 22.63532 q 0.67835,0 1.07107,-0.285619 0.39273,-0.285619 0.53554,-0.74975 0.17851,-0.499834 0.21421,-1.106775 0.0357,-0.60694 0.0357,-1.213881 z"
     style="fill:#ee525e;fill-opacity:1;stroke-width:0.892559"
     id="path42" /><path
     d="m 204.34021,53.76831 q 0,1.92793 -0.60694,3.427431 -0.60694,1.463798 -1.71371,2.499168 -1.07107,0.999667 -2.64198,1.535203 -1.5352,0.535536 -3.42743,0.535536 h -20.38607 q -1.85652,0 -3.39173,-0.535536 -1.5352,-0.571239 -2.67768,-1.606608 -1.10677,-1.03537 -1.74942,-2.499168 -0.60694,-1.499501 -0.60694,-3.356026 V 42.950483 q 0.14281,-1.606608 0.78546,-2.999002 0.67834,-1.392393 1.78512,-2.39206 1.10677,-1.03537 2.57057,-1.606608 1.4995,-0.606941 3.32032,-0.606941 h 20.35037 q 2.07074,0 3.64165,0.642643 1.5709,0.606941 2.60627,1.713715 1.07107,1.106775 1.60661,2.641978 0.53553,1.535203 0.53553,3.391728 z m -6.89056,-9.425433 q 0,-0.428429 -0.0357,-0.821156 -0.0357,-0.392726 -0.17851,-0.678345 -0.14281,-0.321322 -0.46413,-0.499834 -0.28562,-0.214214 -0.82116,-0.214214 h -20.38607 q -0.60694,0 -0.92826,0.142809 -0.32132,0.14281 -0.49984,0.392727 -0.14281,0.249917 -0.17851,0.571238 0,0.285619 0,0.606941 v 8.78279 q 0,0.963965 0.24992,1.606608 0.28562,0.606941 1.32099,0.606941 h 20.35037 q 0.57123,0 0.89256,-0.142809 0.32132,-0.178512 0.46413,-0.428429 0.17851,-0.249917 0.17851,-0.571239 0.0357,-0.357024 0.0357,-0.714048 z"
     style="fill:#ee525e;fill-opacity:1;stroke-width:0.892559"
     id="path44" /><path
     d="m 207.7319,35.381574 h 30.16853 q 2.49917,0 3.82016,0.428429 1.35669,0.428429 1.96363,1.392394 0.64264,0.963964 0.74975,2.570572 0.10711,1.606608 0.10711,3.962967 0,1.142477 -0.10711,1.820822 -0.10711,0.642643 -0.28562,1.106775 -0.17851,0.428428 -0.46413,0.785452 -0.28562,0.357024 -0.64264,0.89256 0.28561,0.428429 0.57123,0.785453 0.32133,0.321322 0.57124,0.749751 0.28562,0.392726 0.42843,0.89256 0.17851,0.464131 0.17851,1.142476 l 1.24959,9.853863 h -6.96197 l -1.17818,-9.853863 h -23.27797 v 9.853863 h -6.92626 z m 6.89056,9.889565 h 21.70706 q 0.92827,0 1.24959,-0.963965 0.32132,-0.963965 0.32132,-2.177846 h -23.27797 z"
     style="fill:#ee525e;fill-opacity:1;stroke-width:0.892559"
     id="path46" /><path
     d="m 248.71822,35.381574 h 37.45182 v 6.747754 h -15.35203 v 19.63632 h -6.64065 V 42.200733 h -15.45914 z"
     style="fill:#ee525e;fill-opacity:1;stroke-width:0.892559"
     id="path48" /><path
     d="m 296.77361,35.345872 v 26.419776 h -7.3547 V 35.345872 Z"
     style="fill:#ee525e;fill-opacity:1;stroke-width:0.892559"
     id="path50" /><path
     d="m 300.23671,41.236768 q 0,-1.320989 0.53554,-2.463466 0.57124,-1.142477 1.4995,-1.963632 0.92826,-0.856857 2.14214,-1.320989 1.21388,-0.499833 2.49917,-0.499833 2.89189,0 5.42676,2.499168 l 17.95831,17.279961 V 35.345872 h 6.71205 v 19.422105 q 0,1.570906 -0.53553,2.927597 -0.53554,1.320989 -1.4638,2.284954 -0.92826,0.963965 -2.14215,1.535203 -1.21388,0.535536 -2.57057,0.535536 -0.74975,0 -1.42809,-0.178512 -0.64265,-0.178512 -1.4638,-0.642643 -0.78546,-0.464131 -1.85653,-1.285287 -1.03537,-0.856857 -2.53487,-2.177846 L 306.91306,42.057923 v 19.707725 h -6.67635 z"
     style="fill:#ee525e;fill-opacity:1;stroke-width:0.892559"
     id="path52" /><path
     d="m 375.42593,41.236768 v 20.52888 h -6.67635 v -6.783456 h -12.88856 l -6.74776,6.783456 h -10.4608 l 24.67036,-24.277632 q 2.53487,-2.499168 5.42676,-2.499168 1.28529,0 2.46347,0.321321 1.21388,0.321322 2.14214,1.03537 0.96397,0.714048 1.4995,1.92793 0.57124,1.178179 0.57124,2.891894 z m -6.67635,0.821155 -7.21188,7.247587 h 7.21188 z"
     style="fill:#ee525e;fill-opacity:1;stroke-width:0.892559"
     id="path54" /><path
     d="m 378.60345,35.381574 h 37.45182 v 6.747754 h -15.35204 v 19.63632 h -6.64064 V 42.200733 h -15.45914 z"
     style="fill:#ee525e;fill-opacity:1;stroke-width:0.892559"
     id="path56" /><path
     d="m 456.54174,53.76831 q 0,1.92793 -0.60694,3.427431 -0.60694,1.463798 -1.71372,2.499168 -1.07107,0.999667 -2.64198,1.535203 -1.5352,0.535536 -3.42743,0.535536 H 427.7656 q -1.85652,0 -3.39173,-0.535536 -1.5352,-0.571239 -2.67768,-1.606608 -1.10677,-1.03537 -1.74941,-2.499168 -0.60694,-1.499501 -0.60694,-3.356026 V 42.950483 q 0.14281,-1.606608 0.78545,-2.999002 0.67834,-1.392393 1.78512,-2.39206 1.10677,-1.03537 2.57057,-1.606608 1.4995,-0.606941 3.32033,-0.606941 h 20.35036 q 2.07074,0 3.64165,0.642643 1.5709,0.606941 2.60627,1.713715 1.07108,1.106775 1.60661,2.641978 0.53554,1.535203 0.53554,3.391728 z m -6.89057,-9.425433 q 0,-0.428429 -0.0357,-0.821156 -0.0357,-0.392726 -0.17851,-0.678345 -0.14281,-0.321322 -0.46413,-0.499834 -0.28562,-0.214214 -0.82116,-0.214214 H 427.7656 q -0.60694,0 -0.92826,0.142809 -0.32132,0.14281 -0.49983,0.392727 -0.14281,0.249917 -0.17852,0.571238 0,0.285619 0,0.606941 v 8.78279 q 0,0.963965 0.24992,1.606608 0.28562,0.606941 1.32099,0.606941 h 20.35037 q 0.57124,0 0.89256,-0.142809 0.32132,-0.178512 0.46413,-0.428429 0.17851,-0.249917 0.17851,-0.571239 0.0357,-0.357024 0.0357,-0.714048 z"
     style="fill:#ee525e;fill-opacity:1;stroke-width:0.892559"
     id="path58" /><path
     d="m 459.93342,35.381574 h 30.16853 q 2.49917,0 3.82016,0.428429 1.35669,0.428429 1.96363,1.392394 0.64264,0.963964 0.74975,2.570572 0.10711,1.606608 0.10711,3.962967 0,1.142477 -0.10711,1.820822 -0.10711,0.642643 -0.28562,1.106775 -0.17851,0.428428 -0.46413,0.785452 -0.28562,0.357024 -0.64264,0.89256 0.28562,0.428429 0.57124,0.785453 0.32132,0.321322 0.57123,0.749751 0.28562,0.392726 0.42843,0.89256 0.17852,0.464131 0.17852,1.142476 l 1.24958,9.853863 h -6.96197 l -1.17818,-9.853863 h -23.27796 v 9.853863 h -6.92627 z m 6.89057,9.889565 h 21.70706 q 0.92826,0 1.24958,-0.963965 0.32132,-0.963965 0.32132,-2.177846 h -23.27796 z"
     style="fill:#ee525e;fill-opacity:1;stroke-width:0.892559"
     id="path60" /></g></g>
<g
   aria-label="Beta"
   transform="scale(1.0263133,0.97436134)"
   id="text36"
   style="font-style:normal;font-variant:normal;font-weight:normal;font-stretch:normal;font-size:27.6076px;line-height:1.25;font-family:'Letter Gothic Std';-inkscape-font-specification:'Letter Gothic Std';fill:#000000;fill-opacity:1;stroke:none;stroke-width:0.862738"><path
     d="m 301.88456,115.69105 v -8.69639 h 3.42334 c 2.95401,0 4.63808,2.20861 4.63808,4.61047 0,2.8988 -2.26383,4.08592 -3.89267,4.08592 z m 4.38961,1.10431 c 3.14726,0 4.96936,-2.40186 4.96936,-5.24545 0,-2.67793 -1.49081,-4.52764 -4.05831,-5.27305 1.93253,-0.85583 3.17487,-2.31904 3.17487,-4.50004 0,-3.036833 -2.01535,-4.858935 -4.91415,-4.858935 H 300.587 v 19.877475 z m -4.38961,-10.905 v -7.868171 h 2.95401 c 3.31291,0 4.22396,1.546026 4.22396,3.671811 0,2.5399 -1.76688,4.19636 -5.16262,4.19636 z"
     style="font-style:normal;font-variant:normal;font-weight:normal;font-stretch:normal;font-size:27.6076px;font-family:'Letter Gothic Std';-inkscape-font-specification:'Letter Gothic Std';fill:#800000;stroke-width:0.862738"
     id="path63" /><path
     d="m 327.06265,114.55914 c -1.38038,0.82823 -2.95402,1.4356 -4.61047,1.4356 -2.23622,0 -4.362,-1.15952 -4.61047,-6.29454 h 9.99395 c 0,-6.04606 -2.8988,-7.81295 -5.35587,-7.81295 -4.30679,0 -5.93564,3.9755 -5.93564,7.67492 0,3.69941 1.57364,7.53687 5.85281,7.53687 1.87732,0 3.53378,-0.57976 5.21784,-1.32516 z m -9.22094,-5.96324 c -0.0828,-2.56751 1.62885,-5.60434 4.47243,-5.60434 2.87119,0 4.362,3.09205 4.22396,5.60434 z"
     style="font-style:normal;font-variant:normal;font-weight:normal;font-stretch:normal;font-size:27.6076px;font-family:'Letter Gothic Std';-inkscape-font-specification:'Letter Gothic Std';fill:#800000;stroke-width:0.862738"
     id="path65" /><path
     d="m 342.88176,102.19094 h -5.35587 v -4.693295 h -1.29756 v 4.693295 h -3.28531 v 1.1043 h 3.28531 v 9.19333 c 0,3.69942 1.68406,4.61047 3.56138,4.61047 2.181,0 3.78224,-1.51842 4.69329,-3.39573 l -1.24234,-0.30369 c -0.63498,1.38038 -1.76689,2.59512 -3.39574,2.59512 -1.79449,0 -2.31903,-1.32517 -2.31903,-2.73316 v -9.96634 h 5.35587 z"
     style="font-style:normal;font-variant:normal;font-weight:normal;font-stretch:normal;font-size:27.6076px;font-family:'Letter Gothic Std';-inkscape-font-specification:'Letter Gothic Std';fill:#800000;stroke-width:0.862738"
     id="path67" /><path
     d="m 359.86039,116.93339 c -0.3865,-1.21473 -0.7454,-2.53989 -0.7178,-3.94788 l 0.16565,-5.96324 c 0.0828,-3.2577 -1.51842,-5.13502 -4.19636,-5.13502 -1.38038,0 -2.62272,0.38651 -3.89267,0.88345 l 0.30369,1.18712 c 1.15952,-0.52454 2.23621,-0.96626 3.50616,-0.96626 2.40186,0 3.06445,1.54602 2.98162,5.24544 -1.02148,-0.49694 -2.37425,-0.96626 -3.56138,-0.96626 -2.81597,0 -4.38961,2.40186 -4.38961,5.19022 0,2.45708 1.38038,4.63808 4.05832,4.63808 1.90493,0 2.98162,-1.02148 4.0031,-2.48468 0.0828,0.82822 0.27608,1.68406 0.55216,2.48468 z m -1.93253,-3.89267 c -0.88344,1.49081 -1.98775,2.95402 -3.80985,2.95402 -1.84971,0 -2.76076,-1.7945 -2.76076,-3.42335 0,-2.15339 0.96627,-4.19635 3.39574,-4.19635 1.15952,0 2.26382,0.41411 3.17487,0.88344 z"
     style="font-style:normal;font-variant:normal;font-weight:normal;font-stretch:normal;font-size:27.6076px;font-family:'Letter Gothic Std';-inkscape-font-specification:'Letter Gothic Std';fill:#800000;stroke-width:0.862738"
     id="path69" /></g></g>
</svg>
